<?xml version="1.0" encoding="UTF-8"?>
<svg version="1.1" xmlns="http://www.w3.org/2000/svg" width="200" height="200">
<path d="M0 0 C66 0 132 0 200 0 C200 66 200 132 200 200 C134 200 68 200 0 200 C0 134 0 68 0 0 Z " fill="#0E1824" transform="translate(0,0)"/>
<path d="M0 0 C0.66 0 1.32 0 2 0 C2.495 2.97 2.495 2.97 3 6 C4.11375 6.061875 5.2275 6.12375 6.375 6.1875 C14.3508679 7.20389379 22.92016623 11.70671648 28 18 C31.76591873 24.34696924 35.11676893 30.57180019 36 38 C37.98 38.66 39.96 39.32 42 40 C39 42 39 42 36 43 C35.18444444 45.49516401 35.18444444 45.49516401 34.6875 48.5 C32.58722175 57.66287195 27.85345708 64.742992 20 70 C14.42868599 73.13763533 9.35445031 74.53785816 3 75 C2.67 76.65 2.34 78.3 2 80 C1.34 80 0.68 80 0 80 C-0.33 78.35 -0.66 76.7 -1 75 C-2.27875 74.938125 -3.5575 74.87625 -4.875 74.8125 C-13.05479244 73.87362445 -19.93600232 69.98306233 -25.46875 63.94140625 C-30.57476394 57.46771 -32.8635425 51.12482303 -34 43 C-35.98 42.34 -37.96 41.68 -40 41 C-37 39 -37 39 -34 39 C-33.95875 37.9275 -33.9175 36.855 -33.875 35.75 C-32.63908568 26.33032868 -27.59090809 18.49431738 -20.2890625 12.62109375 C-14.00738551 8.17246584 -8.70906045 6.35690095 -1 6 C-0.67 4.02 -0.34 2.04 0 0 Z " fill="#0AB3B5" transform="translate(99,38)"/>
<path d="M0 0 C2.97 0.495 2.97 0.495 6 1 C6 1.99 6 2.98 6 4 C6.5775 4.20625 7.155 4.4125 7.75 4.625 C10.863127 6.5274665 12.20739939 8.86294893 14 12 C14 12.99 14 13.98 14 15 C13.01 15 12.02 15 11 15 C11.495 17.475 11.495 17.475 12 20 C10.35 19.67 8.7 19.34 7 19 C7 20.65 7 22.3 7 24 C8.98 23.67 10.96 23.34 13 23 C12.505 25.475 12.505 25.475 12 28 C12.99 28.33 13.98 28.66 15 29 C12.13199956 34.56729496 7.89059061 39.41705752 2.375 42.4375 C-0.16716727 43.03959225 -2.39652824 43.14876981 -5 43 C-4.67 40.36 -4.34 37.72 -4 35 C-5.32 35 -6.64 35 -8 35 C-7.67 36.98 -7.34 38.96 -7 41 C-8.98 40.34 -10.96 39.68 -13 39 C-13 39.99 -13 40.98 -13 42 C-15.31 41.34 -17.62 40.68 -20 40 C-20 39.34 -20 38.68 -20 38 C-20.99 37.67 -21.98 37.34 -23 37 C-23.66 36.34 -24.32 35.68 -25 35 C-25.33 35 -25.66 35 -26 35 C-26.76173392 30.6835078 -27.16063604 27.25566547 -26 23 C-24.02 23 -22.04 23 -20 23 C-20.33 22.01 -20.66 21.02 -21 20 C-21.99 20 -22.98 20 -24 20 C-24 18.35 -24 16.7 -24 15 C-24.99 15 -25.98 15 -27 15 C-26.42856724 11.26047681 -24.89210549 9.45957185 -22.25 6.8125 C-21.23679687 5.77029297 -21.23679687 5.77029297 -20.203125 4.70703125 C-17.75545849 2.81052369 -16.04336247 2.35647777 -13 2 C-13 2.66 -13 3.32 -13 4 C-11.35 4 -9.7 4 -8 4 C-7.67 4.99 -7.34 5.98 -7 7 C-6.01 7 -5.02 7 -4 7 C-4.33 5.02 -4.66 3.04 -5 1 C-2.525 1.495 -2.525 1.495 0 2 C0 1.34 0 0.68 0 0 Z " fill="#09636A" transform="translate(106,57)"/>
<path d="M0 0 C0.66 0 1.32 0 2 0 C2.495 2.97 2.495 2.97 3 6 C4.11375 6.061875 5.2275 6.12375 6.375 6.1875 C14.3508679 7.20389379 22.92016623 11.70671648 28 18 C31.76591873 24.34696924 35.11676893 30.57180019 36 38 C37.98 38.66 39.96 39.32 42 40 C39 42 39 42 36 43 C35.18444444 45.49516401 35.18444444 45.49516401 34.6875 48.5 C32.58722175 57.66287195 27.85345708 64.742992 20 70 C14.42868599 73.13763533 9.35445031 74.53785816 3 75 C2.67 76.65 2.34 78.3 2 80 C1.34 80 0.68 80 0 80 C-0.33 78.35 -0.66 76.7 -1 75 C-2.27875 74.938125 -3.5575 74.87625 -4.875 74.8125 C-13.05479244 73.87362445 -19.93600232 69.98306233 -25.46875 63.94140625 C-30.57476394 57.46771 -32.8635425 51.12482303 -34 43 C-35.98 42.34 -37.96 41.68 -40 41 C-37 39 -37 39 -34 39 C-33.95875 37.9275 -33.9175 36.855 -33.875 35.75 C-32.63908568 26.33032868 -27.59090809 18.49431738 -20.2890625 12.62109375 C-14.00738551 8.17246584 -8.70906045 6.35690095 -1 6 C-0.67 4.02 -0.34 2.04 0 0 Z M-21 21 C-27.5350152 30.03213482 -28.12223963 39.10723014 -27 50 C-25.03773297 56.90461248 -19.8822908 62.07168815 -14 66 C-5.92726293 70.10870489 3.29589822 70.5959663 12.015625 68.15625 C20.01898215 64.52282405 25.71895015 58.10668749 29 50 C29.43728508 47.03009067 29.46502624 44.12285789 29.4375 41.125 C29.45748047 40.36058594 29.47746094 39.59617187 29.49804688 38.80859375 C29.49092053 30.41375864 25.90261225 23.90261225 20 18 C6.57581491 9.09865863 -9.26440659 9.26440659 -21 21 Z " fill="#01E1E0" transform="translate(99,38)"/>
<path d="M0 0 C1.65 0 3.3 0 5 0 C6.65 2.97 8.3 5.94 10 9 C11.32 6.03 12.64 3.06 14 0 C15.65 0 17.3 0 19 0 C19 5.61 19 11.22 19 17 C17.68 17 16.36 17 15 17 C14.67 15.02 14.34 13.04 14 11 C13.566875 11.825 13.13375 12.65 12.6875 13.5 C11.8521875 14.7375 11.8521875 14.7375 11 16 C10.01 16 9.02 16 8 16 C7.01 13.69 6.02 11.38 5 9 C4.67 11.64 4.34 14.28 4 17 C2.68 17 1.36 17 0 17 C0 11.39 0 5.78 0 0 Z " fill="#00F2F1" transform="translate(71,131)"/>
<path d="M0 0 C0 1.32 0 2.64 0 4 C1.32 4 2.64 4 4 4 C4 5.98 4 7.96 4 10 C1.03 9.505 1.03 9.505 -2 9 C-2 8.34 -2 7.68 -2 7 C-7.41893031 9.24687354 -11.29700831 12.51152523 -15 17 C-15.33 17.99 -15.66 18.98 -16 20 C-15.01 20 -14.02 20 -13 20 C-13 21.98 -13 23.96 -13 26 C-14.98 26 -16.96 26 -19 26 C-19 24.68 -19 23.36 -19 22 C-19.99 21.67 -20.98 21.34 -22 21 C-20.04285634 13.42894426 -17.31027361 7.95582999 -10.75 3.45703125 C-6.79857804 1.13687066 -4.68883703 0 0 0 Z " fill="#07898E" transform="translate(95,52)"/>
<path d="M0 0 C5.87242929 0.55927898 9.70558551 2.44351952 13.67578125 6.8671875 C16.4791733 10.41324428 18.70860424 13.33766786 19 18 C17.02 17.34 15.04 16.68 13 16 C13 16.99 13 17.98 13 19 C10.69 18.34 8.38 17.68 6 17 C6 16.34 6 15.68 6 15 C5.01 14.67 4.02 14.34 3 14 C2.34 13.34 1.68 12.68 1 12 C0.67 12 0.34 12 0 12 C-0.76173392 7.6835078 -1.16063604 4.25566547 0 0 Z " fill="#0E696F" transform="translate(80,80)"/>
<path d="M0 0 C2.97 0.495 2.97 0.495 6 1 C6 1.99 6 2.98 6 4 C6.5775 4.20625 7.155 4.4125 7.75 4.625 C10.863127 6.5274665 12.20739939 8.86294893 14 12 C14 12.99 14 13.98 14 15 C13.01 15 12.02 15 11 15 C11.33 16.65 11.66 18.3 12 20 C5.54083978 19.12380087 1.44510996 15.19591818 -2.4375 10.12109375 C-4.06426591 7.50584161 -5.06937213 5.67637824 -4.75 2.5625 C-4.5025 2.046875 -4.255 1.53125 -4 1 C-2.02 1.495 -2.02 1.495 0 2 C0 1.34 0 0.68 0 0 Z " fill="#0D6C72" transform="translate(106,57)"/>
<path d="M0 0 C-0.33 1.32 -0.66 2.64 -1 4 C-0.01 4.33 0.98 4.66 2 5 C-0.86800044 10.56729496 -5.10940939 15.41705752 -10.625 18.4375 C-13.16716727 19.03959225 -15.39652824 19.14876981 -18 19 C-17.85240173 12.06288143 -14.77419514 7.89685233 -10 3 C-6.62625187 0.3629683 -4.31510303 -1.43836768 0 0 Z " fill="#0F6A71" transform="translate(119,81)"/>
<path d="M0 0 C9.78355796 2.39597338 14.28239166 5.64582871 19.6171875 14.24609375 C20.94565796 16.89177645 21.5872208 19.08408541 22 22 C21.01 22 20.02 22 19 22 C19 23.32 19 24.64 19 26 C17.02 26 15.04 26 13 26 C12.67 24.02 12.34 22.04 12 20 C12.99 20 13.98 20 15 20 C14.23832543 18.53686228 13.46529293 17.07963339 12.6875 15.625 C12.25824219 14.81289062 11.82898438 14.00078125 11.38671875 13.1640625 C10.03221276 10.73165957 10.03221276 10.73165957 7 9 C7 8.01 7 7.02 7 6 C4.03 5.505 4.03 5.505 1 5 C1 5.66 1 6.32 1 7 C-0.65 6.67 -2.3 6.34 -4 6 C-4 4.68 -4 3.36 -4 2 C-2.68 2 -1.36 2 0 2 C0 1.34 0 0.68 0 0 Z " fill="#089EA1" transform="translate(105,52)"/>
<path d="M0 0 C3.10137224 2.83554033 5.31065101 5.39330827 7.375 9.0625 C9.95749544 13.37478013 12.46135714 14.89277296 17 17 C17.845625 17.4125 18.69125 17.825 19.5625 18.25 C22.46474077 19.14299716 24.98095147 19.14042086 28 19 C25.69 18.34 23.38 17.68 21 17 C24.82810821 15.72396393 28.23475107 16.13716013 32.1875 16.4375 C32.93708984 16.48970703 33.68667969 16.54191406 34.45898438 16.59570312 C36.30637082 16.72513784 38.15324371 16.86186518 40 17 C38.02 17.99 38.02 17.99 36 19 C39.3 19 42.6 19 46 19 C46 18.34 46 17.68 46 17 C47.8125 15.9375 47.8125 15.9375 50 15 C50.99 15.33 51.98 15.66 53 16 C46.88603484 20.1606724 41.60554952 23 34 23 C33.505 25.475 33.505 25.475 33 28 C32.34 28 31.68 28 31 28 C30.505 25.525 30.505 25.525 30 23 C28.72125 22.938125 27.4425 22.87625 26.125 22.8125 C17.01992186 21.76742028 9.67754519 17.07810674 4 10 C1.72993029 6.72624962 0 4.09736833 0 0 Z " fill="#01EAE9" transform="translate(68,90)"/>
<path d="M0 0 C5 0 5 0 6.80078125 1.75 C7.29964844 2.4925 7.79851562 3.235 8.3125 4 C8.82425781 4.7425 9.33601563 5.485 9.86328125 6.25 C10.23839844 6.8275 10.61351563 7.405 11 8 C11.33 5.36 11.66 2.72 12 0 C13.32 0 14.64 0 16 0 C16 5.61 16 11.22 16 17 C10.375 15.875 10.375 15.875 7.6875 11.9375 C7.17574219 11.20402344 6.66398437 10.47054687 6.13671875 9.71484375 C5.76160156 9.14894531 5.38648437 8.58304688 5 8 C4.67 10.97 4.34 13.94 4 17 C2.68 17 1.36 17 0 17 C0 11.39 0 5.78 0 0 Z " fill="#00F4F3" transform="translate(113,131)"/>
<path d="M0 0 C0 0.66 0 1.32 0 2 C1.65 2 3.3 2 5 2 C4.22189937 7.87670739 1.12311576 10.96423839 -3 15 C-6.08879671 17.24639761 -7.19327059 18 -11 18 C-11 16.35 -11 14.7 -11 13 C-11.99 13 -12.98 13 -14 13 C-13.43738888 9.20663713 -11.83201153 7.45505887 -9.125 4.8125 C-8.07699219 3.77029297 -8.07699219 3.77029297 -7.0078125 2.70703125 C-4.72174977 0.76343317 -3.02372992 0 0 0 Z " fill="#136067" transform="translate(93,59)"/>
<path d="M0 0 C1.65 0 3.3 0 5 0 C7.94033413 5.57765673 10.53012914 10.85326729 12 17 C10.35 17 8.7 17 7 17 C7 16.01 7 15.02 7 14 C5.0509375 14.185625 5.0509375 14.185625 3.0625 14.375 C2.33160156 14.44460937 1.60070312 14.51421875 0.84765625 14.5859375 C0.23792969 14.72257813 -0.37179688 14.85921875 -1 15 C-1.33 15.66 -1.66 16.32 -2 17 C-3.65 17 -5.3 17 -7 17 C-4.69 11.39 -2.38 5.78 0 0 Z " fill="#00F7F5" transform="translate(57,131)"/>
<path d="M0 0 C1.98 0 3.96 0 6 0 C7.00419637 2.4566947 8.00350501 4.91518353 9 7.375 C9.28617188 8.07367188 9.57234375 8.77234375 9.8671875 9.4921875 C12 14.7734375 12 14.7734375 12 17 C10.35 17 8.7 17 7 17 C7 16.01 7 15.02 7 14 C5.0509375 14.185625 5.0509375 14.185625 3.0625 14.375 C2.33160156 14.44460937 1.60070312 14.51421875 0.84765625 14.5859375 C0.23792969 14.72257813 -0.37179688 14.85921875 -1 15 C-1.33 15.66 -1.66 16.32 -2 17 C-3.32 17 -4.64 17 -6 17 C-5.34496718 12.94180817 -4.05440879 9.46028718 -2.4375 5.6875 C-1.75494141 4.08455078 -1.75494141 4.08455078 -1.05859375 2.44921875 C-0.53458984 1.23685547 -0.53458984 1.23685547 0 0 Z " fill="#00F6F5" transform="translate(99,131)"/>
<path d="M0 0 C1.32 0 2.64 0 4 0 C4.33 1.98 4.66 3.96 5 6 C5.37511719 5.566875 5.75023437 5.13375 6.13671875 4.6875 C10.36878216 0.08233276 10.36878216 0.08233276 13.875 -0.375 C14.57625 -0.25125 15.2775 -0.1275 16 0 C14.35 1.98 12.7 3.96 11 6 C12.44950455 9.7910119 14.15172566 13.3874638 16 17 C13.8125 17.3125 13.8125 17.3125 11 17 C8.1875 14.5 8.1875 14.5 6 12 C5.34 13.65 4.68 15.3 4 17 C2.68 17 1.36 17 0 17 C0 11.39 0 5.78 0 0 Z " fill="#00FBFA" transform="translate(133,131)"/>
<path d="M0 0 C0.99 0 1.98 0 3 0 C3 1.32 3 2.64 3 4 C3.99 4 4.98 4 6 4 C5.05858314 10.58991801 1.89653035 14.60567789 -3 19 C-3.66 19 -4.32 19 -5 19 C-5 19.99 -5 20.98 -5 22 C-7.97 22.66 -10.94 23.32 -14 24 C-14 23.01 -14 22.02 -14 21 C-15.32 21.33 -16.64 21.66 -18 22 C-18 21.34 -18 20.68 -18 20 C-16.845 19.814375 -15.69 19.62875 -14.5 19.4375 C-8.07959918 17.84095273 -3.6476396 13.41997067 0 8.0625 C0.33 7.381875 0.66 6.70125 1 6 C0.34 5.67 -0.32 5.34 -1 5 C-0.67 3.35 -0.34 1.7 0 0 Z " fill="#078589" transform="translate(119,80)"/>
<path d="M0 0 C1.98 0 3.96 0 6 0 C5.01 0.495 5.01 0.495 4 1 C4.185625 1.804375 4.37125 2.60875 4.5625 3.4375 C4.706875 4.283125 4.85125 5.12875 5 6 C4.67 6.33 4.34 6.66 4 7 C4.03093173 9.41585574 4.03093173 9.41585574 5 12 C6.62332967 13.38576923 8.28724465 14.72641268 10 16 C10 16.66 10 17.32 10 18 C12.31 18.66 14.62 19.32 17 20 C17 19.01 17 18.02 17 17 C18.98 17.66 20.96 18.32 23 19 C23 19.99 23 20.98 23 22 C21.68 22 20.36 22 19 22 C18.67 22.99 18.34 23.98 18 25 C16.02 24.01 14.04 23.02 12 22 C12 21.34 12 20.68 12 20 C11.01 20 10.02 20 9 20 C7.4375 18.5625 7.4375 18.5625 6 17 C5.34 16.67 4.68 16.34 4 16 C4 15.34 4 14.68 4 14 C3.38125 13.7525 2.7625 13.505 2.125 13.25 C-0.41530728 11.7557016 -1.02864183 10.75218149 -2 8 C-2 6.68 -2 5.36 -2 4 C-1.34 4 -0.68 4 0 4 C0 2.68 0 1.36 0 0 Z " fill="#0C7F85" transform="translate(76,79)"/>
<path d="M0 0 C5.69034847 4.67421481 8.26361064 11.82020373 9 19 C10.98 19.66 12.96 20.32 15 21 C12 23 12 23 9 24 C8.19787372 25.87387216 8.19787372 25.87387216 7.8125 28.0625 C7.57466797 29.16271484 7.57466797 29.16271484 7.33203125 30.28515625 C7.22246094 30.85105469 7.11289063 31.41695312 7 32 C6.67 32 6.34 32 6 32 C5.94465088 31.42967041 5.88930176 30.85934082 5.83227539 30.27172852 C5.58026257 27.70151247 5.32147272 25.13202369 5.0625 22.5625 C4.97548828 21.66466797 4.88847656 20.76683594 4.79882812 19.84179688 C4.71181641 18.98779297 4.62480469 18.13378906 4.53515625 17.25390625 C4.456604 16.46314697 4.37805176 15.6723877 4.29711914 14.85766602 C4.18448501 12.98896652 4.18448501 12.98896652 3 12 C2.67 12.99 2.34 13.98 2 15 C1.44191911 13.56879256 0.90403538 12.12969645 0.375 10.6875 C0.07335937 9.88699219 -0.22828125 9.08648437 -0.5390625 8.26171875 C-0.69117187 7.51535156 -0.84328125 6.76898438 -1 6 C-0.34 5.01 0.32 4.02 1 3 C0.34 3 -0.32 3 -1 3 C-0.67 2.01 -0.34 1.02 0 0 Z " fill="#00EFED" transform="translate(126,57)"/>
<path d="M0 0 C0 1.32 0 2.64 0 4 C1.32 4 2.64 4 4 4 C4 4.66 4 5.32 4 6 C2.35 6.33 0.7 6.66 -1 7 C-1.33 6.34 -1.66 5.68 -2 5 C-3.70977584 5.73755036 -5.41904863 6.47630252 -7.125 7.22265625 C-9 8 -9 8 -11.6875 8.8125 C-16.37849134 11.22138744 -18.31176086 16.21665577 -20 21 C-19.01 21 -18.02 21 -17 21 C-17 22.65 -17 24.3 -17 26 C-17.66 26 -18.32 26 -19 26 C-19 24.68 -19 23.36 -19 22 C-19.99 21.67 -20.98 21.34 -22 21 C-20.04285634 13.42894426 -17.31027361 7.95582999 -10.75 3.45703125 C-6.79857804 1.13687066 -4.68883703 0 0 0 Z " fill="#089EA1" transform="translate(95,52)"/>
<path d="M0 0 C0.66 0 1.32 0 2 0 C2.27263672 0.83144531 2.27263672 0.83144531 2.55078125 1.6796875 C2.80214844 2.40414062 3.05351563 3.12859375 3.3125 3.875 C3.67794922 4.95394531 3.67794922 4.95394531 4.05078125 6.0546875 C4.96335547 8.33994905 4.96335547 8.33994905 8 10 C8 10.66 8 11.32 8 12 C10.475 12.99 10.475 12.99 13 14 C13 14.66 13 15.32 13 16 C13.99 16 14.98 16 16 16 C16.33 16.66 16.66 17.32 17 18 C17.825 18.33 18.65 18.66 19.5 19 C22 20 22 20 23 22 C16.93341001 22.20264184 12.82571574 21.4342816 8.125 17.4375 C3.59379688 12.96243568 0.28807043 8.45684511 -0.25 2 C-0.1675 1.34 -0.085 0.68 0 0 Z " fill="#059DA1" transform="translate(72,83)"/>
<path d="M0 0 C0.03738281 0.75925781 0.07476562 1.51851563 0.11328125 2.30078125 C0.21189453 3.79158203 0.21189453 3.79158203 0.3125 5.3125 C0.39951172 6.79169922 0.39951172 6.79169922 0.48828125 8.30078125 C0.80839518 10.98359989 0.80839518 10.98359989 2.25 12.8125 C4.45134934 14.30627277 6.0467634 14.49614228 8.6875 14.6875 C9.49574219 14.75324219 10.30398437 14.81898437 11.13671875 14.88671875 C11.75160156 14.92410156 12.36648437 14.96148437 13 15 C12.67 15.99 12.34 16.98 12 18 C8.4375 19.1875 8.4375 19.1875 5 20 C4.64808594 19.46890625 4.29617187 18.9378125 3.93359375 18.390625 C0.44550283 13.39983172 -2.5076409 10.63633237 -8 8 C-7.34 7.67 -6.68 7.34 -6 7 C-5.855625 6.195625 -5.71125 5.39125 -5.5625 4.5625 C-4.83623924 1.25397876 -3.48538685 0 0 0 Z " fill="#078388" transform="translate(92,73)"/>
<path d="M0 0 C2.31735765 1.83146008 3.38500151 3.44726045 5 6 C5 6.66 5 7.32 5 8 C5.99 8 6.98 8 8 8 C10.10770759 10.88834003 11 12.38462395 11 16 C9.35 16 7.7 16 6 16 C6.33 17.65 6.66 19.3 7 21 C6.01 21 5.02 21 4 21 C3.67 19.02 3.34 17.04 3 15 C3.99 15 4.98 15 6 15 C5.23832543 13.53686228 4.46529293 12.07963339 3.6875 10.625 C3.25824219 9.81289062 2.82898438 9.00078125 2.38671875 8.1640625 C1.03221276 5.73165957 1.03221276 5.73165957 -2 4 C-2 3.01 -2 2.02 -2 1 C-4.97 0.505 -4.97 0.505 -8 0 C-8 0.66 -8 1.32 -8 2 C-9.65 1.67 -11.3 1.34 -13 1 C-8.58241445 -1.5644034 -4.8368844 -1.50614728 0 0 Z " fill="#09888C" transform="translate(114,57)"/>
<path d="M0 0 C3.27337643 -0.42696214 5.35429678 -0.28886723 8.375 1.0625 C10.78794727 3.93947559 10.2734643 6.37659799 10 10 C8.02 10.99 8.02 10.99 6 12 C6.185625 11.401875 6.37125 10.80375 6.5625 10.1875 C7.22093687 7.83591238 7.22093687 7.83591238 6 5 C4.68 5 3.36 5 2 5 C2.33 5.99 2.66 6.98 3 8 C3.66 8.33 4.32 8.66 5 9 C5 9.66 5 10.32 5 11 C2.625 11.125 2.625 11.125 0 11 C-2 9 -2 9 -2.25 6.0625 C-2 3 -2 3 0 0 Z " fill="#0A4F58" transform="translate(96,72)"/>
<path d="M0 0 C-1.28520923 5.85484203 -4.36411583 9.39873375 -9 13 C-11.9375 13.9375 -11.9375 13.9375 -14 14 C-12.97326851 8.29593614 -11.24814801 5.79440033 -6.75390625 2.1640625 C-4.54227326 0.69620809 -2.66720606 0 0 0 Z " fill="#141D29" transform="translate(98,62)"/>
<path d="M0 0 C6.19049884 1.20790221 9.55225416 4.96610111 13 10 C13.69921875 12.2578125 13.69921875 12.2578125 14 14 C8.21049294 13.22064328 4.77346421 10.33772054 1 6 C0 2.5625 0 2.5625 0 0 Z " fill="#121B27" transform="translate(84,81)"/>
<path d="M0 0 C6.25591397 1.90858392 9.37016318 3.50024724 13 9 C13.8125 11.875 13.8125 11.875 14 14 C9.1072569 13.85173506 6.71332648 11.28641308 3.515625 7.921875 C1.56524307 5.44871028 0.67206537 3.06163111 0 0 Z " fill="#18242F" transform="translate(102,62)"/>
<path d="M0 0 C2.75 -0.375 2.75 -0.375 6 0 C8 2.6875 8 2.6875 10 6 C11.03416245 6.84827503 12.09821052 7.66128422 13.1875 8.4375 C16 11 16 11 16.875 14.8125 C16.91625 15.864375 16.9575 16.91625 17 18 C15.68 18.33 14.36 18.66 13 19 C12.731875 17.948125 12.46375 16.89625 12.1875 15.8125 C10.79572202 10.99697088 10.79572202 10.99697088 8 7 C5.62672173 6.49787783 3.38469763 6.31279815 0.9609375 6.23828125 C0.31382813 6.15964844 -0.33328125 6.08101563 -1 6 C-1.33 5.34 -1.66 4.68 -2 4 C-1.0625 1.875 -1.0625 1.875 0 0 Z " fill="#068E92" transform="translate(97,64)"/>
<path d="M0 0 C-1.17597907 5.45226658 -2.43345086 8.44823956 -7 12 C-9.34114933 12.93257401 -11.52079095 13.46526864 -14 14 C-12.21042205 8.46857724 -9.07713199 4.44916185 -4.3125 1.125 C-2 0 -2 0 0 0 Z " fill="#1A2530" transform="translate(116,81)"/>
<path d="M0 0 C1 2 1 2 0.50390625 3.953125 C-2.5199028 11.33071722 -6.78987967 14.79925528 -13.75 18.4375 C-16.24165712 19.06041428 -17.61191279 18.88447674 -20 18 C-18 15 -18 15 -16.0546875 14.48828125 C-15.33539063 14.43027344 -14.61609375 14.37226562 -13.875 14.3125 C-12.59625 14.209375 -11.3175 14.10625 -10 14 C-10 13.01 -10 12.02 -10 11 C-8.3203125 9.31640625 -8.3203125 9.31640625 -6.125 7.5625 C-3.22584219 5.24005638 -1.44058127 3.44981304 0 0 Z " fill="#04ACAE" transform="translate(124,88)"/>
<path d="M0 0 C0.66 0 1.32 0 2 0 C2.60965199 6.02031344 3.13451772 11.94670256 3 18 C2.34 18 1.68 18 1 18 C0.79375 16.72125 0.5875 15.4425 0.375 14.125 C-0.08483533 11.92186032 -0.08483533 11.92186032 -1 10 C-3.99428144 8.38852558 -3.99428144 8.38852558 -7 8 C-4 6 -4 6 -1 6 C-0.67 4.02 -0.34 2.04 0 0 Z " fill="#01F1EF" transform="translate(66,71)"/>
<path d="M0 0 C-6.11396516 4.1606724 -11.39445048 7 -19 7 C-19.33 8.65 -19.66 10.3 -20 12 C-20.66 12 -21.32 12 -22 12 C-22.12375 11.195625 -22.2475 10.39125 -22.375 9.5625 C-22.684375 8.2940625 -22.684375 8.2940625 -23 7 C-23.66 6.67 -24.32 6.34 -25 6 C-19.01314152 4.73638028 -13.08233706 3.67581523 -7 3 C-7 2.34 -7 1.68 -7 1 C-3.375 -1.125 -3.375 -1.125 0 0 Z " fill="#02F3F1" transform="translate(121,106)"/>
<path d="M0 0 C0.6015625 1.81640625 0.6015625 1.81640625 1 4 C-1.38258776 8.30698556 -4.33791432 11.72339702 -8 15 C-8.66 15 -9.32 15 -10 15 C-10 15.99 -10 16.98 -10 18 C-12.97 18.66 -15.94 19.32 -19 20 C-19 19.01 -19 18.02 -19 17 C-20.32 17.33 -21.64 17.66 -23 18 C-23 17.34 -23 16.68 -23 16 C-21.35 15.67 -19.7 15.34 -18 15 C-18 15.66 -18 16.32 -18 17 C-10.67256142 14.30828787 -5.14705289 10.75624078 -1.5625 3.625 C-1.046875 2.42875 -0.53125 1.2325 0 0 Z " fill="#099599" transform="translate(124,84)"/>
<path d="M0 0 C1.98 0 3.96 0 6 0 C5.01 0.495 5.01 0.495 4 1 C4.33 2.65 4.66 4.3 5 6 C4.34 6 3.68 6 3 6 C3 8.64 3 11.28 3 14 C-0.67230705 10.92000054 -1.56802365 8.7517398 -2 4 C-1.34 4 -0.68 4 0 4 C0 2.68 0 1.36 0 0 Z " fill="#0F9296" transform="translate(76,79)"/>
<path d="M0 0 C1.32 0 2.64 0 4 0 C4 1.32 4 2.64 4 4 C9.445 3.01 9.445 3.01 15 2 C14.67 3.32 14.34 4.64 14 6 C10.7 5.67 7.4 5.34 4 5 C4 6.32 4 7.64 4 9 C2.68 9 1.36 9 0 9 C0 6.03 0 3.06 0 0 Z " fill="#13B8B9" transform="translate(72,74)"/>
<path d="M0 0 C3 3 3 3 4.0625 6.375 C4 10 4 10 1.625 13 C-1.90470123 15.51884783 -4.88398911 15.25387903 -9.046875 14.6875 C-11 14 -11 14 -13 11 C-12.31292969 11.01160156 -11.62585938 11.02320312 -10.91796875 11.03515625 C-9.56638672 11.04869141 -9.56638672 11.04869141 -8.1875 11.0625 C-6.84751953 11.07990234 -6.84751953 11.07990234 -5.48046875 11.09765625 C-2.86586209 11.11009967 -2.86586209 11.11009967 0 10 C0 6.7 0 3.4 0 0 Z " fill="#08777D" transform="translate(107,74)"/>
<path d="M0 0 C0.33 0.66 0.66 1.32 1 2 C5.455 1.505 5.455 1.505 10 1 C10 1.66 10 2.32 10 3 C8.68 3 7.36 3 6 3 C6 3.66 6 4.32 6 5 C-0.5 8 -0.5 8 -5 8 C-3.8141763 4.62496331 -2.72426311 2.35277269 0 0 Z " fill="#01DBDA" transform="translate(87,46)"/>
<path d="M0 0 C0.33 0.99 0.66 1.98 1 3 C2.65 2.67 4.3 2.34 6 2 C5.67 3.32 5.34 4.64 5 6 C2.525 5.505 2.525 5.505 0 5 C0 4.34 0 3.68 0 3 C-5.53455721 5.2948164 -9.00415551 8.68496083 -13 13 C-13 8.77265773 -11.70710259 7.23531773 -9 4 C-6.10153257 2.36867668 -3.12307856 1.13445161 0 0 Z " fill="#0E797F" transform="translate(93,56)"/>
<path d="M0 0 C6.625 -0.125 6.625 -0.125 10 1 C10 1.66 10 2.32 10 3 C11.32 3.33 12.64 3.66 14 4 C14.33 5.98 14.66 7.96 15 10 C14.01 10 13.02 10 12 10 C10.81514556 8.51893195 9.63268704 7.03574653 8.47265625 5.53515625 C6.03450591 2.99353003 3.28745143 2.16027697 0 1 C0 0.67 0 0.34 0 0 Z " fill="#0D5D64" transform="translate(102,61)"/>
<path d="M0 0 C2.64 0 5.28 0 8 0 C8.33 1.32 8.66 2.64 9 4 C7.68 4 6.36 4 5 4 C5.33 7.3 5.66 10.6 6 14 C4.68 14.33 3.36 14.66 2 15 C2.66 11.04 3.32 7.08 4 3 C2.68 3 1.36 3 0 3 C0 2.01 0 1.02 0 0 Z " fill="#0EC6C7" transform="translate(96,50)"/>
<path d="M0 0 C0.66 0 1.32 0 2 0 C2.24234375 0.73605469 2.4846875 1.47210938 2.734375 2.23046875 C5.24109619 9.75774121 5.24109619 9.75774121 10 16 C10.99 16.33 11.98 16.66 13 17 C13.6875 19.0625 13.6875 19.0625 14 21 C7.45615568 17.04325692 2.91537712 12.21172235 0 5 C-0.1875 2.125 -0.1875 2.125 0 0 Z " fill="#04AEB0" transform="translate(72,83)"/>
<path d="M0 0 C1.32 0 2.64 0 4 0 C4 4.33333333 4 8.66666667 4 13 C4.66 13 5.32 13 6 13 C6 13.66 6 14.32 6 15 C3 14 3 14 1 12 C0.67 12 0.34 12 0 12 C-0.76173392 7.6835078 -1.16063604 4.25566547 0 0 Z " fill="#086F75" transform="translate(80,80)"/>
<path d="M0 0 C0 0.66 0 1.32 0 2 C1.65 2 3.3 2 5 2 C2.8614515 4.1385485 1.86724686 4.42655063 -1 5 C-1 4.34 -1 3.68 -1 3 C-6.31427203 5.70923672 -9.42148591 8.22864787 -13 13 C-13.33 12.01 -13.66 11.02 -14 10 C-12.56877218 8.51476358 -11.12979111 7.03699538 -9.6875 5.5625 C-8.88699219 4.73878906 -8.08648437 3.91507813 -7.26171875 3.06640625 C-4.85047002 0.8633828 -3.2936941 0 0 0 Z " fill="#086C73" transform="translate(93,59)"/>
<path d="M0 0 C1.1446875 0.2475 1.1446875 0.2475 2.3125 0.5 C5.03596236 1.09145396 5.03596236 1.09145396 8 1 C8.99 1.33 9.98 1.66 11 2 C10.34 3.32 9.68 4.64 9 6 C9.66 6 10.32 6 11 6 C10.67 7.32 10.34 8.64 10 10 C6.66666667 6.66666667 3.33333333 3.33333333 0 0 Z " fill="#01DFDE" transform="translate(116,54)"/>
<path d="M0 0 C0.8353125 1.0828125 0.8353125 1.0828125 1.6875 2.1875 C3.97909334 4.97457299 6.41459857 7.48641528 9 10 C7.68 10.33 6.36 10.66 5 11 C4.67 10.34 4.34 9.68 4 9 C2.68 9 1.36 9 0 9 C-0.66 6.69 -1.32 4.38 -2 2 C-1.34 2 -0.68 2 0 2 C0 1.34 0 0.68 0 0 Z " fill="#0B575F" transform="translate(84,84)"/>
<path d="M0 0 C0.33 0.99 0.66 1.98 1 3 C2.32 3 3.64 3 5 3 C5 3.66 5 4.32 5 5 C3.35 5.33 1.7 5.66 0 6 C-0.33 5.34 -0.66 4.68 -1 4 C-2.11375 4.515625 -3.2275 5.03125 -4.375 5.5625 C-5.57125 6.036875 -6.7675 6.51125 -8 7 C-8.66 6.67 -9.32 6.34 -10 6 C-6.7 4.02 -3.4 2.04 0 0 Z " fill="#0D8D91" transform="translate(94,53)"/>
<path d="M0 0 C0.33 0 0.66 0 1 0 C0.67 6.6 0.34 13.2 0 20 C-0.33 20 -0.66 20 -1 20 C-1.33 17.03 -1.66 14.06 -2 11 C-2.33 11 -2.66 11 -3 11 C-2.53199289 6.94393835 -2.12046792 3.53411321 0 0 Z " fill="#04D4D4" transform="translate(72,64)"/>
<path d="M0 0 C0.125 2.875 0.125 2.875 0 6 C-2 8 -2 8 -5.625 8.125 C-6.73875 8.08375 -7.8525 8.0425 -9 8 C-8.67 7.34 -8.34 6.68 -8 6 C-6.35 6.33 -4.7 6.66 -3 7 C-3 6.34 -3 5.68 -3 5 C-3.99 4.67 -4.98 4.34 -6 4 C-6 3.01 -6 2.02 -6 1 C-1.125 0 -1.125 0 0 0 Z " fill="#07738B" transform="translate(104,76)"/>
<path d="M0 0 C1.40742022 2.81484045 0.66652164 4.56936113 0.0625 7.625 C-0.13214844 8.62789062 -0.32679687 9.63078125 -0.52734375 10.6640625 C-0.68332031 11.43492188 -0.83929688 12.20578125 -1 13 C-3.2344598 8.96707255 -3.54496743 5.55032566 -4 1 C-2.68 0.67 -1.36 0.34 0 0 Z " fill="#09C1C2" transform="translate(102,91)"/>
<path d="M0 0 C0.99 0 1.98 0 3 0 C1.55536047 3.37082558 -0.24663125 5.58037292 -3 8 C-3.99 8.33 -4.98 8.66 -6 9 C-6.66 8.34 -7.32 7.68 -8 7 C-7.236875 6.5875 -6.47375 6.175 -5.6875 5.75 C-2.93814514 4.18124382 -2.93814514 4.18124382 -1.375 1.8125 C-0.694375 0.9153125 -0.694375 0.9153125 0 0 Z " fill="#0B565E" transform="translate(114,86)"/>
<path d="M0 0 C1.4540625 0.0309375 1.4540625 0.0309375 2.9375 0.0625 C2.9375 1.7125 2.9375 3.3625 2.9375 5.0625 C2.6075 4.0725 2.2775 3.0825 1.9375 2.0625 C0.6175 2.0625 -0.7025 2.0625 -2.0625 2.0625 C-1.2861068 5.1370356 -1.2861068 5.1370356 0.9375 7.0625 C-0.7125 6.7325 -2.3625 6.4025 -4.0625 6.0625 C-4.105221 4.39638095 -4.10313832 2.72867115 -4.0625 1.0625 C-3.0625 0.0625 -3.0625 0.0625 0 0 Z " fill="#0C343D" transform="translate(100.0625,74.9375)"/>
<path d="M0 0 C2.97 0.495 2.97 0.495 6 1 C6 1.66 6 2.32 6 3 C4.35 3 2.7 3 1 3 C1 3.66 1 4.32 1 5 C-0.98 5 -2.96 5 -5 5 C-4.67 3.68 -4.34 2.36 -4 1 C-2.02 1.495 -2.02 1.495 0 2 C0 1.34 0 0.68 0 0 Z " fill="#13787E" transform="translate(106,57)"/>
<path d="M0 0 C0.66 0.33 1.32 0.66 2 1 C1.01 1.33 0.02 1.66 -1 2 C-1.268125 2.61875 -1.53625 3.2375 -1.8125 3.875 C-3.54023664 6.96673926 -5.77882955 7.72495336 -9 9 C-9.66 8.67 -10.32 8.34 -11 8 C-9.92130607 7.03644756 -8.83681257 6.07938583 -7.75 5.125 C-6.84507813 4.32449219 -6.84507813 4.32449219 -5.921875 3.5078125 C-3.99948454 1.99959559 -2.27452566 0.8928923 0 0 Z " fill="#00F0EF" transform="translate(85,47)"/>
<path d="M0 0 C5.39449293 -0.27429625 8.51925805 -0.36055646 13 3 C12.67 3.66 12.34 4.32 12 5 C11.34 4.67 10.68 4.34 10 4 C10 3.34 10 2.68 10 2 C8.54119891 2.14107747 7.08296449 2.28802415 5.625 2.4375 C4.81289062 2.51871094 4.00078125 2.59992188 3.1640625 2.68359375 C0.95727195 2.89090114 0.95727195 2.89090114 -1 4 C-0.67 2.68 -0.34 1.36 0 0 Z " fill="#08757B" transform="translate(94,69)"/>
<path d="M0 0 C0.66 0 1.32 0 2 0 C1.38983051 5.49152542 1.38983051 5.49152542 -0.4375 7.875 C-2 9 -2 9 -4 9 C-3.35494404 5.51669784 -2.01782732 2.90567134 0 0 Z " fill="#00EEEC" transform="translate(126,95)"/>
<path d="M0 0 C1.98 0 3.96 0 6 0 C6.33 1.32 6.66 2.64 7 4 C4.36 4 1.72 4 -1 4 C-0.67 2.68 -0.34 1.36 0 0 Z " fill="#079A9E" transform="translate(97,64)"/>
<path d="M0 0 C0 3.60122522 -1.17797949 5.02873556 -3.48828125 7.703125 C-5.79204004 9.67947621 -8.04101995 9.86237302 -11 10 C-8.70395251 7.64600809 -6.29439874 5.46890382 -3.8125 3.3125 C-2.73935547 2.37857422 -2.73935547 2.37857422 -1.64453125 1.42578125 C-1.10183594 0.95527344 -0.55914062 0.48476562 0 0 Z " fill="#077D83" transform="translate(117,91)"/>
<path d="M0 0 C-1.55500981 3.81684226 -4.03595495 6.19195732 -7 9 C-7.66 8.67 -8.32 8.34 -9 8 C-3.95652174 0 -3.95652174 0 0 0 Z " fill="#0A545C" transform="translate(92,62)"/>
<path d="M0 0 C2.475 0.99 2.475 0.99 5 2 C4.0409375 2.1546875 4.0409375 2.1546875 3.0625 2.3125 C2.381875 2.539375 1.70125 2.76625 1 3 C0.67 3.99 0.34 4.98 0 6 C-1.98 5.01 -3.96 4.02 -6 3 C-6 2.67 -6 2.34 -6 2 C-4.35 2 -2.7 2 -1 2 C-0.67 1.34 -0.34 0.68 0 0 Z " fill="#108E92" transform="translate(94,98)"/>
<path d="M0 0 C0.66 0 1.32 0 2 0 C4.09230769 4.43076923 4.09230769 4.43076923 3.625 7.3125 C3.41875 7.869375 3.2125 8.42625 3 9 C3 8.34 3 7.68 3 7 C0.525 6.01 0.525 6.01 -2 5 C-2 4.34 -2 3.68 -2 3 C-1.34 3 -0.68 3 0 3 C0 2.01 0 1.02 0 0 Z " fill="#01D7D7" transform="translate(69,86)"/>
<path d="M0 0 C1.4783226 2.95664519 1.06032783 5.74229737 1 9 C-0.98 8.34 -2.96 7.68 -5 7 C-4.34 6.67 -3.68 6.34 -3 6 C-2.835 5.175 -2.67 4.35 -2.5 3.5 C-2.335 2.675 -2.17 1.85 -2 1 C-1.34 0.67 -0.68 0.34 0 0 Z " fill="#079497" transform="translate(89,74)"/>
<path d="M0 0 C3 3 3 3 3.1875 5.6875 C3.0946875 6.8321875 3.0946875 6.8321875 3 8 C2.67 8 2.34 8 2 8 C1.67 10.97 1.34 13.94 1 17 C0.67 17 0.34 17 0 17 C0 11.39 0 5.78 0 0 Z " fill="#04D6D6" transform="translate(128,67)"/>
<path d="M0 0 C0.66 0 1.32 0 2 0 C2 0.66 2 1.32 2 2 C3.65 2 5.3 2 7 2 C4.8614515 4.1385485 3.86724686 4.42655063 1 5 C1 4.34 1 3.68 1 3 C-0.65 3.66 -2.3 4.32 -4 5 C-2.71937515 3.2925002 -1.38232443 1.62626404 0 0 Z " fill="#10646B" transform="translate(91,59)"/>
<path d="M0 0 C5.65394631 -0.34615998 9.03006806 0.56574762 14 3 C13.67 3.66 13.34 4.32 13 5 C12.154375 4.71125 11.30875 4.4225 10.4375 4.125 C6.97638959 2.99227296 3.50627443 1.98175684 0 1 C0 0.67 0 0.34 0 0 Z " fill="#00F1F0" transform="translate(103,45)"/>
<path d="M0 0 C2.64 0.66 5.28 1.32 8 2 C5.08235 3.9451 3.37462715 4.45276317 0 5 C0 3.35 0 1.7 0 0 Z " fill="#07CBCC" transform="translate(113,76)"/>
<path d="M0 0 C0.99 0 1.98 0 3 0 C3 1.98 3 3.96 3 6 C1.68 6 0.36 6 -1 6 C-1.042721 4.33388095 -1.04063832 2.66617115 -1 1 C-0.67 0.67 -0.34 0.34 0 0 Z " fill="#1C8186" transform="translate(79,72)"/>
<path d="M0 0 C1.32 0 2.64 0 4 0 C4 1.98 4 3.96 4 6 C3.01 6 2.02 6 1 6 C0.67 4.02 0.34 2.04 0 0 Z " fill="#1B6D73" transform="translate(80,80)"/>
<path d="M0 0 C3 0 3 0 5.25 1.75 C5.8275 2.4925 6.405 3.235 7 4 C6.609375 6.140625 6.609375 6.140625 6 8 C4.99403703 7.0479279 3.99538437 6.08812654 3 5.125 C2.443125 4.59132813 1.88625 4.05765625 1.3125 3.5078125 C0 2 0 2 0 0 Z " fill="#0F1824" transform="translate(105,67)"/>
<path d="M0 0 C0.66 0 1.32 0 2 0 C1.52797514 4.24822374 -0.96655518 6.19989709 -4 9 C-3.4739075 5.21213403 -2.61896089 2.82847776 0 0 Z " fill="#00EEED" transform="translate(72,58)"/>
<path d="M0 0 C0 3 0 3 -2.375 5.625 C-5 8 -5 8 -7 9 C-5.64978174 4.58110387 -3.73884332 2.65654657 0 0 Z " fill="#0E1824" transform="translate(111,83)"/>
<path d="M0 0 C3 3.625 3 3.625 3 7 C1.68 6.67 0.36 6.34 -1 6 C-1.33 4.35 -1.66 2.7 -2 1 C-1.34 0.67 -0.68 0.34 0 0 Z " fill="#212E39" transform="translate(113,69)"/>
<path d="M0 0 C2.97 0.495 2.97 0.495 6 1 C6.33 2.32 6.66 3.64 7 5 C2.25 4.125 2.25 4.125 0 3 C0 2.01 0 1.02 0 0 Z " fill="#1C2B36" transform="translate(91,90)"/>
<path d="M0 0 C0.66 0.33 1.32 0.66 2 1 C2.625 3.5625 2.625 3.5625 3 6 C1.35 6 -0.3 6 -2 6 C-1.34 4.02 -0.68 2.04 0 0 Z " fill="#0C313B" transform="translate(59,136)"/>
<path d="M0 0 C1.32 0 2.64 0 4 0 C4 1.65 4 3.3 4 5 C2.68 4.67 1.36 4.34 0 4 C0 2.68 0 1.36 0 0 Z " fill="#1A9B9F" transform="translate(120,73)"/>
<path d="M0 0 C0.99 0 1.98 0 3 0 C2.67 1.65 2.34 3.3 2 5 C1.01 5 0.02 5 -1 5 C-0.67 3.35 -0.34 1.7 0 0 Z " fill="#1D898E" transform="translate(119,80)"/>
<path d="M0 0 C0.33 0 0.66 0 1 0 C0.67 2.31 0.34 4.62 0 7 C-2.97 6.505 -2.97 6.505 -6 6 C-3 4 -3 4 0 4 C0 2.68 0 1.36 0 0 Z " fill="#08D3D3" transform="translate(65,73)"/>
<path d="M0 0 C0.66 0.33 1.32 0.66 2 1 C1.67 1.99 1.34 2.98 1 4 C-1.64 3.67 -4.28 3.34 -7 3 C-4.66785852 1.79371992 -2.50357861 0.8345262 0 0 Z " fill="#07C8C9" transform="translate(85,76)"/>
<path d="M0 0 C1.32 0.33 2.64 0.66 4 1 C4 2.65 4 4.3 4 6 C3.01 6 2.02 6 1 6 C0.67 4.02 0.34 2.04 0 0 Z " fill="#1D7E83" transform="translate(117,72)"/>
<path d="M0 0 C0.99 0.66 1.98 1.32 3 2 C2.34 3.65 1.68 5.3 1 7 C0.01 7 -0.98 7 -2 7 C-1.34 4.69 -0.68 2.38 0 0 Z " fill="#1C2631" transform="translate(86,69)"/>
<path d="M0 0 C0.66 0.33 1.32 0.66 2 1 C2.625 3.5625 2.625 3.5625 3 6 C1.35 6 -0.3 6 -2 6 C-1.34 4.02 -0.68 2.04 0 0 Z " fill="#0D2631" transform="translate(101,136)"/>
<path d="M0 0 C1.98 0 3.96 0 6 0 C5.67 0.99 5.34 1.98 5 3 C3.35 3.33 1.7 3.66 0 4 C0 2.68 0 1.36 0 0 Z " fill="#1C7E83" transform="translate(101,96)"/>
<path d="M0 0 C2.31 0.66 4.62 1.32 7 2 C4.38058783 3.74627478 2.96175123 4.38722388 0 5 C0 3.35 0 1.7 0 0 Z " fill="#06E7E7" transform="translate(134,76)"/>
</svg>
